Coordinates
version=1
nRows=16
nColumns=38
inDegrees=no

Units are S.I. units (second, meters, Newtons, ...)
If the header above contains a line with 'inDegrees', this indicates whether rotational values are in degrees (yes) or radians (no).

endheader
time	pelvis_tilt	pelvis_list	pelvis_rotation	pelvis_tx	pelvis_ty	pelvis_tz	hip_flexion_r	hip_adduction_r	hip_rotation_r	knee_angle_r	ankle_angle_r	subtalar_angle_r	mtp_angle_r	hip_flexion_l	hip_adduction_l	hip_rotation_l	knee_angle_l	ankle_angle_l	subtalar_angle_l	mtp_angle_l	lumbar_extension	lumbar_bending	lumbar_rotation	arm_flex_r	arm_add_r	arm_rot_r	elbow_flex_r	pro_sup_r	wrist_flex_r	wrist_dev_r	arm_flex_l	arm_add_l	arm_rot_l	elbow_flex_l	pro_sup_l	wrist_flex_l	wrist_dev_l
5.425	-0.0903905	0.0293708	-3.05753	-0.132279	0.973061	-0.0178477	0.104645	0.0787089	-0.160503	0.266956	0.0800631	0	0	0.173635	-0.170371	-0.0720668	1.15478	-0.110678	0	0	-0.270314	0.0673142	0.0205122	0.366137	-0.332257	1.57632	0.435856	0.0713613	0	0	0.214845	-0.254144	1.5708	0.435516	-0.00403767	0	0
5.43499	-0.0945315	0.0267831	-3.05884	-0.131707	0.974238	-0.0192594	0.0847233	0.079887	-0.156624	0.254524	0.0834239	0	0	0.187047	-0.169827	-0.075065	1.15924	-0.0969004	0	0	-0.276014	0.0628996	0.0264605	0.381059	-0.334857	1.57629	0.441421	0.0782697	0	0	0.19889	-0.253349	1.5708	0.43147	-0.00346189	0	0
5.44498	-0.0984599	0.0237947	-3.06068	-0.131119	0.975352	-0.0206527	0.0650969	0.0805058	-0.152178	0.24217	0.0865274	0	0	0.19929	-0.168676	-0.0793519	1.15894	-0.0825258	0	0	-0.281348	0.0578492	0.0329988	0.395579	-0.337663	1.57557	0.447255	0.0850912	0	0	0.183328	-0.252711	1.5708	0.427736	-0.00281813	0	0
5.45497	-0.102125	0.020529	-3.06298	-0.130513	0.976388	-0.0220212	0.0458938	0.0806642	-0.147246	0.230026	0.0894498	0	0	0.210474	-0.167065	-0.084858	1.15407	-0.0679319	0	0	-0.28625	0.0523152	0.0401357	0.409594	-0.340775	1.57384	0.453484	0.091947	0	0	0.168188	-0.2522	1.5708	0.424323	-0.00218233	0	0
5.46496	-0.105501	0.0171013	-3.06565	-0.129886	0.977333	-0.0233558	0.0272096	0.0804604	-0.141927	0.21821	0.092275	0	0	0.220704	-0.165121	-0.0914676	1.14489	-0.0534091	0	0	-0.290692	0.0464515	0.0478423	0.423009	-0.344293	1.57074	0.460238	0.0990368	0	0	0.153501	-0.251782	1.5708	0.421233	-0.00160231	0	0
5.47495	-0.108578	0.0136107	-3.0686	-0.129236	0.978176	-0.0246453	0.00911443	0.0799826	-0.13633	0.206833	0.0950921	0	0	0.230073	-0.162935	-0.0990354	1.13166	-0.0391936	0	0	-0.294671	0.0404006	0.0560593	0.43574	-0.348311	1.5659	0.467637	0.106614	0	0	0.139302	-0.251429	1.5708	0.418463	-0.00110417	0	0
5.48494	-0.111359	0.0101347	-3.07169	-0.128561	0.978907	-0.0258767	-0.00834642	0.079303	-0.130587	0.195995	0.0979939	0	0	0.238664	-0.160563	-0.107392	1.11466	-0.0254935	0	0	-0.29821	0.0342865	0.0646964	0.447707	-0.352906	1.55894	0.475786	0.114957	0	0	0.125623	-0.251114	1.5708	0.416006	-0.000698044	0	0
5.49494	-0.11386	0.00673198	-3.07479	-0.127861	0.979521	-0.0270371	-0.0251473	0.07848	-0.124848	0.185785	0.101076	0	0	0.246546	-0.158028	-0.116359	1.09418	-0.0124993	0	0	-0.301346	0.0282133	0.0736413	0.458844	-0.358134	1.5495	0.484758	0.124338	0	0	0.112496	-0.250821	1.5708	0.413855	-0.000383058	0	0
5.50493	-0.116102	0.00344317	-3.07776	-0.127134	0.980014	-0.0281141	-0.0412793	0.0775593	-0.119276	0.176278	0.104429	0	0	0.253774	-0.155323	-0.125755	1.07049	-0.000370719	0	0	-0.304124	0.022265	0.0827667	0.469103	-0.364017	1.53739	0.494581	0.134978	0	0	0.0999504	-0.250538	1.5708	0.411998	-0.000151388	0	0
5.51492	-0.118114	0.000295665	-3.08046	-0.126385	0.980387	-0.0290954	-0.0567533	0.0765772	-0.114039	0.167526	0.108133	0	0	0.260395	-0.152424	-0.135405	1.04389	0.0107911	0	0	-0.306595	0.0165119	0.0919318	0.478466	-0.370543	1.5226	0.505229	0.147005	0	0	0.0880032	-0.250254	1.5708	0.410418	8.60676e-06	0	0
5.52491	-0.119924	-0.00269379	-3.08277	-0.125617	0.980641	-0.0299695	-0.0715895	0.0755618	-0.109298	0.159571	0.11225	0	0	0.266448	-0.149292	-0.145152	1.01464	0.020935	0	0	-0.308806	0.0110135	0.100991	0.486957	-0.377654	1.50536	0.516613	0.160397	0	0	0.0766598	-0.249952	1.5708	0.409082	0.000110076	0	0
5.5349	-0.121537	-0.00552383	-3.08463	-0.124834	0.980779	-0.0307282	-0.0857855	0.0745261	-0.105177	0.152444	0.116833	0	0	0.27199	-0.145881	-0.15488	0.983036	0.0300409	0	0	-0.310772	0.00580364	0.10981	0.494639	-0.385252	1.48612	0.528582	0.174976	0	0	0.0659077	-0.24962	1.5708	0.407954	0.000166084	0	0
5.54489	-0.122927	-0.00820602	-3.08598	-0.124041	0.980799	-0.0313676	-0.0993067	0.0734686	-0.101753	0.146179	0.121929	0	0	0.277096	-0.14214	-0.16452	0.949329	0.0380958	0	0	-0.312471	0.000890622	0.118279	0.501603	-0.3932	1.4655	0.540932	0.190425	0	0	0.0557196	-0.249245	1.5708	0.406995	0.000188598	0	0
5.55488	-0.12406	-0.0107524	-3.08682	-0.123245	0.980705	-0.0318865	-0.112116	0.0723883	-0.0990577	0.140799	0.12757	0	0	0.281839	-0.138026	-0.174023	0.913766	0.0450717	0	0	-0.313867	-0.00372525	0.126309	0.507955	-0.401351	1.44418	0.553443	0.20637	0	0	0.0460629	-0.248819	1.5708	0.406165	0.00018793	0	0
5.56487	-0.124913	-0.0131692	-3.08716	-0.122451	0.980498	-0.0322852	-0.124194	0.0712921	-0.0970988	0.13631	0.133767	0	0	0.28627	-0.133509	-0.183344	0.876564	0.0509189	0	0	-0.314937	-0.0080407	0.133827	0.513806	-0.409563	1.42278	0.565904	0.222447	0	0	0.036906	-0.248326	1.5708	0.405419	0.000172514	0	0
5.57486	-0.125472	-0.0154578	-3.08701	-0.121666	0.980183	-0.0325651	-0.13554	0.070193	-0.0958683	0.132701	0.140504	0	0	0.290429	-0.128567	-0.192426	0.837917	0.0555798	0	0	-0.315667	-0.0120508	0.14077	0.519261	-0.417701	1.40186	0.578119	0.238319	0	0	0.0282187	-0.24775	1.5708	0.404708	0.000148911	0	0
